<svg xmlns="http://www.w3.org/2000/svg"  viewBox="0 0 64 64" width="64px" height="64px"><path fill="#c5e4fa" d="M24.87,7.34A19.06,19.06,0,0,0,15.63,19.2,15,15,0,0,0,18,49H52a11,11,0,0,0,.73-22A19,19,0,0,0,24.87,7.34"/><path fill="#b8ddf4" d="M6 44L61 44 55 49 13 49 6 44z"/><path fill="#c5e4fa" d="M32.4,43.63a12.38,12.38,0,0,0,.14-4.12A12.17,12.17,0,0,0,8.81,37.71,9.74,9.74,0,0,0,1,47.81,9.92,9.92,0,0,0,11,57H31.83a6.83,6.83,0,0,0,6.9-6.44A6.69,6.69,0,0,0,32.4,43.63Z"/><path fill="#e3f2ff" d="M11.24 35.56a1.53 1.53 0 0 0 2.26-.13 9.12 9.12 0 0 1 14 0 1.53 1.53 0 0 0 2.26.13h0a1.53 1.53 0 0 0 .08-2.07 12.16 12.16 0 0 0-18.67 0 1.53 1.53 0 0 0 .08 2.07zM48.85 15.71h0a2.48 2.48 0 0 1-3.72-.23A14 14 0 0 0 23 15.32a2.48 2.48 0 0 1-3.68.16h0a2.52 2.52 0 0 1-.15-3.37 19.18 19.18 0 0 1 5.66-4.76 19 19 0 0 1 24.24 5.14A2.47 2.47 0 0 1 48.85 15.71z"/><path fill="#b8ddf4" d="M2 52L39 52 33 57 9 57 2 52z"/><path fill="#8d6c9f" d="M55.09,26.42l-.1,0c-.37-.1-.75-.16-1.13-.22A18.22,18.22,0,0,0,54,24a20,20,0,0,0-38.6-7.27,1,1,0,0,0-.1.16c-.18.48-.33,1-.48,1.44A16,16,0,0,0,3.08,39.77,10.74,10.74,0,0,0,0,47.86,10.88,10.88,0,0,0,11,58H31.83a7.87,7.87,0,0,0,7.9-7.41,5.8,5.8,0,0,0,0-.59H52a12,12,0,0,0,3.09-23.58ZM37.73,50.52A5.85,5.85,0,0,1,31.83,56H11a8.89,8.89,0,0,1-9-8.25,8.77,8.77,0,0,1,2-6,8.14,8.14,0,0,1,1.49-1.44,8.45,8.45,0,0,1,2-1.13,13.25,13.25,0,0,0-.17,2,1,1,0,0,0,2,0A11.14,11.14,0,0,1,9.76,38v0c.07-.24.15-.46.23-.69l.1-.26a11.15,11.15,0,0,1,10.4-7,11.56,11.56,0,0,1,1.43.09,11.24,11.24,0,0,1,9.62,9.55,11.53,11.53,0,0,1,0,3,7.64,7.64,0,0,0-.85.09,1,1,0,0,0,.34,2,5.75,5.75,0,0,1,1.29-.07h0a5.64,5.64,0,0,1,2.88,1,1,1,0,0,0,.41.32A5.7,5.7,0,0,1,37.23,48a5.39,5.39,0,0,1,.48,2A2.24,2.24,0,0,1,37.73,50.52ZM52,48H39.37A7.73,7.73,0,0,0,37,44.46V43a1,1,0,0,0-2,0v.23l-.14-.06a1,1,0,0,0-.14-.09,7.61,7.61,0,0,0-1.16-.32,13.74,13.74,0,0,0,0-3.39A13.17,13.17,0,0,0,8.37,36l0,.05c-.07.17-.12.34-.19.51s-.09.21-.12.32a10.25,10.25,0,0,0-3.32,1.52,14,14,0,0,1,9.6-17.87A20.1,20.1,0,0,0,14,24a1,1,0,0,0,2,0,18,18,0,0,1,.58-4.48l0-.06A18,18,0,0,1,52,24a17.21,17.21,0,0,1-.14,2,12,12,0,0,0-2.58.29,1,1,0,1,0,.45,1.95,10.14,10.14,0,0,1,3-.21A10,10,0,0,1,52,48Z"/><path fill="#8d6c9f" d="M56 42a1 1 0 0 0-1 1v2a1 1 0 0 0 2 0V43A1 1 0 0 0 56 42zM41 42a1 1 0 0 0-1 1v2a1 1 0 0 0 2 0V43A1 1 0 0 0 41 42zM46 42a1 1 0 0 0-1 1v2a1 1 0 0 0 2 0V43A1 1 0 0 0 46 42zM51 42a1 1 0 0 0-1 1v2a1 1 0 0 0 2 0V43A1 1 0 0 0 51 42zM41.26 10.66a1 1 0 1 0-.94 1.76 13.58 13.58 0 0 1 2.14 1.42 1 1 0 1 0 1.26-1.55A15.53 15.53 0 0 0 41.26 10.66zM37.24 9.19a15.72 15.72 0 0 0-10.67 1.53 1 1 0 0 0 1 1.76 13.71 13.71 0 0 1 9.3-1.33 1 1 0 0 0 .42-2zM13 50a1 1 0 0 0-1 1v2a1 1 0 0 0 2 0V51A1 1 0 0 0 13 50zM8 50a1 1 0 0 0-1 1v2a1 1 0 0 0 2 0V51A1 1 0 0 0 8 50zM18 50a1 1 0 0 0-1 1v2a1 1 0 0 0 2 0V51A1 1 0 0 0 18 50zM23 50a1 1 0 0 0-1 1v2a1 1 0 0 0 2 0V51A1 1 0 0 0 23 50zM28 50a1 1 0 0 0-1 1v2a1 1 0 0 0 2 0V51A1 1 0 0 0 28 50zM33 50a1 1 0 0 0-1 1v2a1 1 0 0 0 2 0V51A1 1 0 0 0 33 50z"/></svg>