<svg xmlns="http://www.w3.org/2000/svg"  viewBox="0 0 64 64" width="64px" height="64px"><path fill="#c2cde7" d="M52.59,25c2.189-10.827-4.813-21.378-15.64-23.567C26.821-0.615,16.799,5.391,13.83,15.29 C5.153,16.963-0.524,25.353,1.149,34.03C2.611,41.612,9.279,47.068,17,47h35c6.075,0.163,11.132-4.63,11.295-10.705 C63.458,30.22,58.665,25.163,52.59,25L52.59,25z"/><path fill="#d6dff2" d="M17.79,11.59c0.986,0.975,2.575,0.966,3.55-0.019c0.06-0.061,0.117-0.124,0.17-0.191 c5.319-6.351,14.779-7.188,21.131-1.869c0.677,0.567,1.302,1.192,1.869,1.869c0.87,1.08,2.45,1.25,3.529,0.38 c0.066-0.054,0.13-0.11,0.191-0.17l0,0c0.92-0.933,0.973-2.415,0.12-3.41c-7.087-8.472-19.701-9.594-28.173-2.507 c-0.908,0.76-1.747,1.599-2.507,2.507C16.817,9.175,16.87,10.657,17.79,11.59z"/><path fill="#acb7d0" d="M6,42h55l-6,5H13L6,42z"/><path fill="#8d6c9f" d="M56.33,24.84c-0.047-0.034-0.097-0.064-0.15-0.09c-0.685-0.244-1.392-0.425-2.11-0.54l-0.31-0.06 c1.744-11.466-6.138-22.175-17.604-23.918c-0.145-0.022-0.29-0.043-0.436-0.062c-9.33-1.198-18.319,3.954-22,12.61 c-0.19,0.45-0.34,0.91-0.5,1.37c0,0.09-0.07,0.18-0.1,0.27C5.069,16.333-0.457,23.737,0,32c0.652,9.126,8.322,16.151,17.47,16 h2.39h2.3h7.19h2.39h5.12h2.3h5.31h2.31h4.88c6.528,0.038,11.947-5.034,12.34-11.55C64.159,31.347,61.087,26.696,56.33,24.84z M52,46c-0.048,0-0.095-0.007-0.144-0.007C51.791,45.994,51.726,46,51.66,46H46.4c-0.113-0.019-0.228-0.019-0.34,0H17.47 c-0.094,0-0.188-0.008-0.282-0.01C17.125,45.991,17.064,46,17,46c-6.933,0-12.751-4.711-14.47-11.101 c-0.046-0.164-0.087-0.33-0.127-0.495c-0.052-0.222-0.1-0.444-0.142-0.669c-0.073-0.373-0.129-0.749-0.172-1.129 c-0.004-0.041-0.01-0.082-0.014-0.123C2.051,32.254,2.014,32.029,2,31.8c-0.029-0.618-0.007-1.228,0.038-1.833 c0.004-0.058,0.009-0.116,0.014-0.174c0.023-0.272,0.051-0.543,0.089-0.811c0.027-0.204,0.063-0.405,0.098-0.606 c0.026-0.141,0.048-0.282,0.077-0.422c0.955-4.629,4.038-8.481,8.187-10.478c0.076-0.037,0.143-0.052,0.205-0.059 c0.563-0.262,1.14-0.503,1.742-0.697C12.154,18.128,12.004,19.562,12,21c0,0.552,0.448,1,1,1s1-0.448,1-1 c0.001-1.821,0.263-3.633,0.78-5.38c0.11-0.38,0.25-0.75,0.38-1.11c0.06-0.17,0.12-0.35,0.19-0.52C18.222,6.755,25.216,2.004,33,2 c0.816-0.001,1.631,0.049,2.44,0.15c8.486,1.131,15.186,7.766,16.4,16.24c0.246,1.864,0.219,3.754-0.08,5.61 c-0.613,0.006-1.225,0.06-1.83,0.16c-0.552,0.097-0.922,0.623-0.825,1.175c0.096,0.549,0.616,0.915,1.165,0.825 c0.316-0.055,0.636-0.096,0.962-0.121c0.2-0.018,0.401-0.024,0.602-0.03C51.889,26.008,51.944,26,52,26 c0.036,0,0.071,0.005,0.107,0.005c0.164,0,0.328-0.013,0.493-0.005c0.27,0,0.54,0,0.8,0.08h0.3 c4.836,0.829,8.325,5.038,8.299,9.905C61.999,35.99,62,35.995,62,36c0,0.005-0.001,0.009-0.001,0.014 c-0.001,0.122,0.006,0.243,0.001,0.366c-0.007,0.153-0.028,0.304-0.042,0.456c-0.009,0.106-0.017,0.212-0.029,0.318 c-0.017,0.14-0.04,0.278-0.064,0.416C61.11,42.345,56.988,46,52,46z"/><g><path fill="#8d6c9f" d="M13,40c-0.552,0-1,0.448-1,1v2c0,0.552,0.448,1,1,1s1-0.448,1-1v-2C14,40.448,13.552,40,13,40z"/><path fill="#8d6c9f" d="M8,40c-0.552,0-1,0.448-1,1v2c0,0.552,0.448,1,1,1s1-0.448,1-1v-2C9,40.448,8.552,40,8,40z"/><path fill="#8d6c9f" d="M58,40c-0.552,0-1,0.448-1,1v2c0,0.552,0.448,1,1,1s1-0.448,1-1v-2C59,40.448,58.552,40,58,40z"/><path fill="#8d6c9f" d="M18,40c-0.552,0-1,0.448-1,1v2c0,0.552,0.448,1,1,1s1-0.448,1-1v-2C19,40.448,18.552,40,18,40z"/><path fill="#8d6c9f" d="M23,40c-0.552,0-1,0.448-1,1v2c0,0.552,0.448,1,1,1s1-0.448,1-1v-2C24,40.448,23.552,40,23,40z"/><path fill="#8d6c9f" d="M28,40c-0.552,0-1,0.448-1,1v2c0,0.552,0.448,1,1,1s1-0.448,1-1v-2C29,40.448,28.552,40,28,40z"/><path fill="#8d6c9f" d="M38,40c-0.552,0-1,0.448-1,1v2c0,0.552,0.448,1,1,1s1-0.448,1-1v-2C39,40.448,38.552,40,38,40z"/><path fill="#8d6c9f" d="M33,40c-0.552,0-1,0.448-1,1v2c0,0.552,0.448,1,1,1s1-0.448,1-1v-2C34,40.448,33.552,40,33,40z"/><path fill="#8d6c9f" d="M43,40c-0.552,0-1,0.448-1,1v2c0,0.552,0.448,1,1,1s1-0.448,1-1v-2C44,40.448,43.552,40,43,40z"/><path fill="#8d6c9f" d="M48,40c-0.552,0-1,0.448-1,1v2c0,0.552,0.448,1,1,1s1-0.448,1-1v-2C49,40.448,48.552,40,48,40z"/><path fill="#8d6c9f" d="M53,40c-0.552,0-1,0.448-1,1v2c0,0.552,0.448,1,1,1s1-0.448,1-1v-2C54,40.448,53.552,40,53,40z"/></g><g><path fill="#8d6c9f" d="M42.031,10.032c-0.223,0-0.447-0.074-0.634-0.227c-0.625-0.513-1.284-0.966-1.958-1.345 c-0.481-0.271-0.652-0.88-0.382-1.362s0.88-0.654,1.362-0.381c0.775,0.436,1.531,0.955,2.247,1.542 c0.427,0.351,0.488,0.98,0.138,1.407C42.607,9.907,42.32,10.032,42.031,10.032z"/><path fill="#8d6c9f" d="M26.012,8.627c-0.34,0-0.672-0.174-0.859-0.487c-0.283-0.474-0.128-1.088,0.346-1.371 c1.735-1.036,5.913-2.55,10.558-1.654c0.542,0.104,0.896,0.629,0.793,1.171c-0.104,0.542-0.62,0.899-1.172,0.793 c-4.063-0.784-7.765,0.578-9.153,1.407C26.363,8.582,26.186,8.627,26.012,8.627z"/></g><g><path fill="#8d6c9f" d="M21.361,63.021c-0.187,0-0.375-0.052-0.544-0.161c-0.463-0.301-0.595-0.921-0.293-1.384 l9.702-14.937c0.3-0.463,0.919-0.595,1.383-0.294c0.463,0.301,0.595,0.921,0.293,1.384L22.2,62.566 C22.009,62.861,21.688,63.021,21.361,63.021z"/><path fill="#8d6c9f" d="M31.669,59.957c-0.171,0-0.344-0.044-0.503-0.136c-0.477-0.278-0.638-0.891-0.36-1.368 l6.829-11.712c0.279-0.476,0.893-0.636,1.368-0.36c0.477,0.278,0.638,0.891,0.36,1.368l-6.83,11.712 C32.349,59.779,32.014,59.957,31.669,59.957z"/><path fill="#8d6c9f" d="M42.584,54.691c-0.16,0-0.323-0.038-0.475-0.12c-0.485-0.263-0.667-0.869-0.404-1.355l3.447-6.383 c0.262-0.484,0.869-0.669,1.355-0.404c0.485,0.263,0.667,0.869,0.404,1.355l-3.447,6.383 C43.284,54.501,42.939,54.691,42.584,54.691z"/><path fill="#8d6c9f" d="M16.988,56.032c-0.166,0-0.333-0.041-0.488-0.128c-0.481-0.27-0.653-0.88-0.383-1.361l4.277-7.628 c0.27-0.481,0.88-0.652,1.361-0.383s0.653,0.879,0.383,1.361l-4.277,7.628C17.678,55.849,17.338,56.032,16.988,56.032z"/><path fill="#8d6c9f" d="M7.494,60.947c-0.17,0-0.343-0.044-0.501-0.136c-0.478-0.277-0.64-0.889-0.362-1.366l3.43-5.904 c0.278-0.479,0.89-0.639,1.367-0.362c0.478,0.277,0.64,0.889,0.362,1.366l-3.43,5.904C8.174,60.77,7.839,60.947,7.494,60.947z"/><path fill="#8d6c9f" d="M49.956,58.106c-0.166,0-0.335-0.041-0.49-0.129c-0.481-0.271-0.651-0.881-0.38-1.362l2.969-5.266 c0.271-0.481,0.88-0.654,1.362-0.38c0.481,0.271,0.651,0.881,0.38,1.362l-2.969,5.266C50.645,57.924,50.306,58.106,49.956,58.106z"/><path fill="#8d6c9f" d="M47.882,61.713c-0.167,0-0.337-0.042-0.493-0.131c-0.48-0.272-0.648-0.883-0.375-1.363l0.722-1.27 c0.271-0.479,0.881-0.649,1.363-0.375c0.48,0.272,0.648,0.883,0.375,1.363l-0.722,1.27C48.568,61.531,48.229,61.713,47.882,61.713 z"/><path fill="#8d6c9f" d="M39.584,60.213c-0.161,0-0.324-0.039-0.476-0.121c-0.485-0.263-0.666-0.869-0.402-1.355 l1.014-1.872c0.262-0.486,0.869-0.666,1.355-0.402c0.485,0.263,0.666,0.869,0.402,1.355l-1.014,1.872 C40.283,60.023,39.939,60.213,39.584,60.213z"/><path fill="#8d6c9f" d="M7.957,51.5c-0.165,0-0.333-0.041-0.487-0.127c-0.482-0.27-0.654-0.879-0.384-1.361l1.053-1.883 c0.269-0.481,0.877-0.654,1.361-0.385c0.482,0.27,0.654,0.879,0.384,1.361L8.83,50.988C8.647,51.315,8.307,51.5,7.957,51.5z"/></g></svg>